<svg width="530" xmlns="http://www.w3.org/2000/svg" height="530" id="screenshot-55a580a2-be36-8070-8008-7c408423526c" viewBox="0 0 530 530" xmlns:xlink="http://www.w3.org/1999/xlink" fill="none" version="1.1"><g id="shape-55a580a2-be36-8070-8008-7c408423526c" width="800" height="800" xml:space="preserve" rx="0" ry="0" style="fill: rgb(0, 0, 0);"><g id="shape-55a580a2-be36-8070-8008-7c40f0d7045f"><g class="fills" id="fills-55a580a2-be36-8070-8008-7c40f0d7045f"><rect rx="60" ry="60" x="8.526512829121202e-14" y="8.526512829121202e-14" transform="matrix(1.000000, 0.000000, 0.000000, 1.000000, 0.000000, 0.000000)" width="530.0000000000001" height="529.9999999999999" style="fill: rgb(5, 5, 5); fill-opacity: 1;"/></g></g><g id="shape-55a580a2-be36-8070-8008-7c40842617c9" style="display: none;"><g class="fills" id="fills-55a580a2-be36-8070-8008-7c40842617c9"><rect width="495" height="495" x="28" transform="matrix(1.000000, 0.000000, 0.000000, 1.000000, 0.000000, 0.000000)" style="fill: rgb(170, 187, 204); fill-opacity: 1;" ry="0" fill="none" rx="0" y="17.00000000000003"/></g></g><g id="shape-55a580a2-be36-8070-8008-7c4084280af8"><g class="fills" id="fills-55a580a2-be36-8070-8008-7c4084280af8"><path d="M445.13165283203125,82.93449401855469C416.392822265625,77.98454284667969,386.7847595214844,82.011962890625,358.0502624511719,84.84614562988281C329.4215393066406,87.67044067382812,299.52862548828125,91.12692260742188,271.1641845703125,84.41273498535156C237.76568603515625,76.5074462890625,216.63723754882812,54.61479187011719,201.05703735351562,24.952224731445312C196.76107788085938,36.57489013671875,192.46612548828125,48.19645690917969,188.1712646484375,59.82017517089844C160.06985473632812,135.85543823242188,131.96958923339844,211.8907470703125,103.86933898925781,287.9259948730469L28,493.2198486328125L57.30009460449219,504.048828125L125.57853698730469,319.297119140625C138.2503662109375,332.816162109375,153.89498901367188,342.6330261230469,173.9786376953125,347.386474609375C202.34088134765625,354.0962829589844,232.23709106445312,350.6463928222656,260.86358642578125,347.82098388671875C289.5959777832031,344.9813232421875,319.2071838378906,340.95721435546875,347.9461669921875,345.90826416015625C384.8753662109375,352.26873779296875,408.7364501953125,374.38739013671875,425.81231689453125,406.90478515625C458.2119140625,319.24798583984375,490.6048583984375,231.590087890625,523.0000610351562,143.93109130859375C505.92083740234375,111.41252136230469,482.0662841796875,89.29714965820312,445.13165283203125,82.93449401855469ZM448.73333740234375,239.0040283203125C434.2852783203125,226.81045532226562,418.77496337890625,218.65625,400.07452392578125,215.06112670898438C393.8352355957031,231.93728637695312,387.5981750488281,248.81332397460938,381.3610534667969,265.689453125C400.06365966796875,269.2867431640625,415.5706787109375,277.4409484863281,430.02197265625,289.63348388671875C424.3023681640625,305.1099853515625,418.58172607421875,320.5875549316406,412.8631591796875,336.060791015625C398.41510009765625,323.86822509765625,382.9025573730469,315.7085876464844,364.2010803222656,312.11895751953125C369.9206848144531,296.641357421875,375.64141845703125,281.1648254394531,381.3610534667969,265.689453125C362.3189392089844,262.6183776855469,343.72552490234375,262.6358337402344,324.5119934082031,263.81170654296875C318.7934265136719,279.2881164550781,313.0716552734375,294.7657470703125,307.35308837890625,310.2411193847656C287.4725646972656,311.84710693359375,267.65966796875,314.12774658203125,247.78018188476562,315.7303771972656C253.49871826171875,300.25177001953125,259.21942138671875,284.7763366699219,264.9379577636719,269.3030700683594C245.72445678710938,270.47998046875,227.12994384765625,270.4996643066406,208.08786010742188,267.4263916015625C202.36822509765625,282.9029235839844,196.6485595703125,298.37933349609375,190.92898559570312,313.85369873046875C172.22964477539062,310.2618713378906,156.7127685546875,302.1033020019531,142.26797485351562,289.9085998535156C147.98651123046875,274.43426513671875,153.70721435546875,258.95672607421875,159.42575073242188,243.48239135742188C173.8759765625,255.6771240234375,189.38525390625,263.8323974609375,208.08786010742188,267.4263916015625C214.3238525390625,250.55032348632812,220.56320190429688,233.6719970703125,226.79910278320312,216.7958984375C208.09762573242188,213.20956420898438,192.586181640625,205.04226684570312,178.13705444335938,192.85409545898438C184.37527465820312,175.97579956054688,190.61233520507812,159.09744262695312,196.8494873046875,142.22140502929688C211.29974365234375,154.41940307617188,226.80899047851562,162.56597900390625,245.510498046875,166.16653442382812C251.23007202148438,150.69000244140625,256.94970703125,135.21456909179688,262.6693420410156,119.74029541015625C281.7114562988281,122.81134033203125,300.30810546875,122.79388427734375,319.51947021484375,121.61483764648438C313.8009338378906,137.0902099609375,308.0802307128906,152.56668090820312,302.360595703125,168.04214477539062C322.2400817871094,166.43618774414062,342.052978515625,164.15768432617188,361.9335021972656,162.5528564453125C367.6520690917969,147.07742309570312,373.3739013671875,131.6009521484375,379.0923767089844,116.12445068359375C398.30810546875,114.94757080078125,416.898193359375,114.92898559570312,435.94140625,118.00115966796875C430.2218017578125,133.47763061523438,424.502197265625,148.95303344726562,418.78253173828125,164.4306640625C437.485107421875,168.02682495117188,452.99224853515625,176.17880249023438,467.44464111328125,188.37246704101562C461.20867919921875,205.24966430664062,454.97369384765625,222.12796020507812,448.73333740234375,239.0040283203125Z" style="fill: rgb(255, 59, 0); fill-opacity: 1;"/></g></g><g id="shape-55a580a2-be36-8070-8008-7c4084287804"><g class="fills" id="fills-55a580a2-be36-8070-8008-7c4084287804"><path d="M283.6493225097656,218.672607421875C277.41217041015625,235.5498046875,271.1750793457031,252.42593383789062,264.93682861328125,269.3030700683594C284.81744384765625,267.6960754394531,304.63140869140625,265.41650390625,324.5108642578125,263.81170654296875C330.7480163574219,246.9366455078125,336.985107421875,230.0594482421875,343.2222595214844,213.18331909179688C323.3405456542969,214.789306640625,303.52874755859375,217.06887817382812,283.6493225097656,218.672607421875Z" style="fill: rgb(255, 59, 0); fill-opacity: 1;"/></g></g><g id="shape-55a580a2-be36-8070-8008-7c408428b022"><g class="fills" id="fills-55a580a2-be36-8070-8008-7c408428b022"><path d="M283.6493225097656,218.672607421875C289.887451171875,201.7965087890625,296.12457275390625,184.91818237304688,302.3616943359375,168.04324340820312C283.1427001953125,169.216796875,264.5558166503906,169.23648071289062,245.50936889648438,166.16757202148438C239.27224731445312,183.04373168945312,233.03515625,199.92086791992188,226.79806518554688,216.7969970703125C245.84130859375,219.87136840820312,264.43353271484375,219.852783203125,283.6493225097656,218.672607421875Z" style="fill: rgb(255, 59, 0); fill-opacity: 1;"/></g></g><g id="shape-55a580a2-be36-8070-8008-7c408428e4fa"><g class="fills" id="fills-55a580a2-be36-8070-8008-7c408428e4fa"><path d="M361.9335021972656,162.553955078125C355.6964111328125,179.4300537109375,349.4593505859375,196.30615234375,343.2222595214844,213.18331909179688C362.4378967285156,212.00970458984375,381.028076171875,211.99002075195312,400.07232666015625,215.06112670898438C406.30841064453125,198.18505859375,412.54656982421875,181.30783081054688,418.78253173828125,164.4317626953125C399.740478515625,161.35958862304688,381.1492614746094,161.37481689453125,361.9335021972656,162.553955078125Z" style="fill: rgb(255, 59, 0); fill-opacity: 1;"/></g></g></g></svg>